# Blender v2.79 (sub 0) OBJ File: 'project.blend'
# www.blender.org
mtllib box.mtl
o Cube
v 0.000001 -16.979166 -0.000002
v 6.746962 -15.818142 -0.000001
v -0.000001 -15.818142 6.746960
v -6.746961 -15.818142 -0.000003
v 0.000002 -15.818142 -6.746964
v 6.393231 -14.730902 -6.393230
v 6.393229 -14.730902 6.393229
v -6.393230 -14.730902 6.393226
v -6.393227 -14.730902 -6.393232
v -0.000002 16.979166 0.000003
v -0.000000 15.818142 -6.746959
v -6.746964 15.818142 0.000001
v -0.000004 15.818142 6.746965
v 6.746960 15.818142 0.000005
v 6.393229 14.730902 -6.393224
v -6.393230 14.730902 -6.393228
v -6.393233 14.730902 6.393230
v 6.393225 14.730902 6.393233
v 16.979164 0.000000 0.000005
v 15.818144 0.000000 -6.746957
v 15.818140 6.746962 0.000006
v 15.818140 0.000000 6.746966
v 15.818142 -6.746962 0.000003
v 14.730904 -6.393229 -6.393227
v 14.730903 6.393229 -6.393223
v 14.730900 6.393229 6.393235
v 14.730901 -6.393229 6.393232
v -0.000005 0.000000 16.979168
v 6.746957 0.000000 15.818146
v -0.000006 6.746962 15.818143
v -6.746966 0.000000 15.818140
v -0.000004 -6.746962 15.818142
v 6.393225 -6.393229 14.730904
v 6.393223 6.393229 14.730906
v -6.393235 6.393229 14.730902
v -6.393233 -6.393229 14.730900
v -16.979168 0.000000 -0.000004
v -15.818146 0.000000 6.746959
v -15.818143 6.746962 -0.000003
v -15.818140 0.000000 -6.746965
v -15.818142 -6.746962 -0.000004
v -14.730904 -6.393229 6.393225
v -14.730906 6.393229 6.393227
v -14.730902 6.393229 -6.393231
v -14.730902 -6.393229 -6.393232
v 0.000004 0.000000 -16.979166
v 6.746965 0.000000 -15.818140
v 0.000003 -6.746962 -15.818142
v -6.746959 0.000000 -15.818144
v 0.000003 6.746962 -15.818140
v 6.393232 6.393229 -14.730900
v 6.393232 -6.393229 -14.730902
v -6.393227 -6.393229 -14.730904
v -6.393227 6.393229 -14.730903
v 11.596499 -11.596498 -5.925925
v 12.352429 -12.352429 0.000001
v 11.596498 -11.596498 5.925927
v 5.925928 -11.596498 -11.596499
v 0.000003 -12.352429 -12.352432
v -5.925923 -11.596498 -11.596502
v 11.596500 -5.925926 -11.596498
v 12.352433 0.000000 -12.352427
v 11.596500 5.925926 -11.596495
v 5.925923 -11.596498 11.596498
v -0.000002 -12.352429 12.352428
v -5.925928 -11.596498 11.596497
v 11.596497 -5.925926 11.596500
v 12.352427 0.000000 12.352433
v 11.596494 5.925926 11.596503
v -11.596499 -11.596498 5.925922
v -12.352429 -12.352429 -0.000004
v -11.596498 -11.596498 -5.925930
v -11.596500 -5.925926 11.596495
v -12.352433 0.000000 12.352427
v -11.596503 5.925926 11.596498
v -11.596497 -5.925926 -11.596502
v -12.352428 0.000000 -12.352433
v -11.596498 5.925926 -11.596500
v 11.596498 11.596498 -5.925920
v 12.352428 12.352429 0.000006
v 11.596495 11.596498 5.925932
v 5.925928 11.596498 -11.596495
v 0.000002 12.352429 -12.352427
v -5.925925 11.596498 -11.596498
v 5.925921 11.596498 11.596503
v -0.000006 12.352429 12.352433
v -5.925931 11.596498 11.596499
v -11.596502 11.596498 5.925925
v -12.352433 12.352429 -0.000001
v -11.596499 11.596498 -5.925927
v 10.092594 -10.092593 -10.092592
v 10.092591 -10.092593 10.092594
v -10.092594 -10.092593 10.092590
v -10.092591 -10.092593 -10.092597
v 10.092594 10.092593 -10.092587
v 10.092588 10.092593 10.092597
v -10.092597 10.092593 10.092592
v -10.092592 10.092593 -10.092594
vt 0.429531 0.518110
vt 0.467448 0.566485
vt 0.464950 0.517287
vt 0.429911 0.564564
vt 0.469784 0.612831
vt 0.502700 0.568597
vt 0.499104 0.516693
vt 0.495950 0.609177
vt 0.392270 0.568052
vt 0.393954 0.518932
vt 0.356647 0.571243
vt 0.390447 0.614236
vt 0.430144 0.609477
vt 0.363696 0.610109
vt 0.391237 0.469735
vt 0.428929 0.471529
vt 0.388246 0.423115
vt 0.355602 0.467801
vt 0.359356 0.519541
vt 0.361638 0.430549
vt 0.466412 0.467916
vt 0.501587 0.464609
vt 0.467641 0.421249
vt 0.428052 0.426239
vt 0.492680 0.435121
vt 0.688168 0.517797
vt 0.657643 0.560921
vt 0.688964 0.561076
vt 0.656870 0.517611
vt 0.626063 0.560734
vt 0.658416 0.604230
vt 0.689760 0.604354
vt 0.626790 0.604107
vt 0.656097 0.474301
vt 0.687371 0.474519
vt 0.655324 0.430991
vt 0.624610 0.473989
vt 0.625337 0.517362
vt 0.623883 0.430616
vt 0.718504 0.474674
vt 0.719308 0.517942
vt 0.749565 0.474797
vt 0.717699 0.431406
vt 0.686575 0.431240
vt 0.748761 0.431529
vt 0.720112 0.561209
vt 0.720916 0.604477
vt 0.751173 0.561333
vt 0.750369 0.518065
vt 0.751977 0.604601
vt 0.430411 0.692528
vt 0.467837 0.653649
vt 0.430305 0.651435
vt 0.464753 0.693048
vt 0.496427 0.651806
vt 0.463676 0.735139
vt 0.430477 0.734847
vt 0.463602 0.778574
vt 0.496874 0.735430
vt 0.494596 0.696928
vt 0.496680 0.779368
vt 0.397279 0.734556
vt 0.396062 0.693360
vt 0.364080 0.734265
vt 0.397447 0.776986
vt 0.430524 0.777780
vt 0.364369 0.776191
vt 0.392748 0.654629
vt 0.364025 0.658838
vt 0.366240 0.695539
vt 0.294907 0.519585
vt 0.325160 0.568434
vt 0.326872 0.519723
vt 0.294702 0.563836
vt 0.326269 0.606994
vt 0.262161 0.561662
vt 0.261868 0.519232
vt 0.228579 0.560700
vt 0.262454 0.604091
vt 0.293960 0.608085
vt 0.228867 0.602626
vt 0.261574 0.476803
vt 0.294040 0.475329
vt 0.261281 0.434374
vt 0.228002 0.476847
vt 0.228291 0.518774
vt 0.227714 0.434921
vt 0.324293 0.470997
vt 0.320950 0.434096
vt 0.292636 0.431072
vt 0.425361 0.341741
vt 0.389112 0.381731
vt 0.426845 0.383652
vt 0.390752 0.341588
vt 0.361492 0.382178
vt 0.390086 0.298691
vt 0.423656 0.298479
vt 0.388267 0.254417
vt 0.360364 0.303974
vt 0.361191 0.340758
vt 0.359808 0.259364
vt 0.457227 0.298267
vt 0.459938 0.340543
vt 0.490797 0.298055
vt 0.455414 0.254663
vt 0.421841 0.254540
vt 0.488988 0.254787
vt 0.464446 0.380164
vt 0.493118 0.373972
vt 0.494498 0.338668
vt 0.561835 0.516724
vt 0.594137 0.560506
vt 0.593488 0.517029
vt 0.562925 0.561676
vt 0.594786 0.603984
vt 0.533486 0.565683
vt 0.530886 0.516559
vt 0.532972 0.606300
vt 0.564524 0.606614
vt 0.532357 0.467324
vt 0.561762 0.471744
vt 0.534763 0.434938
vt 0.592839 0.473551
vt 0.592745 0.435440
vt 0.563514 0.431822
vn -0.1743 0.9704 0.1670
vn -0.5196 0.8371 0.1711
vn -0.1729 0.8377 0.5180
vn -0.4471 0.7479 0.4907
vn -0.1670 0.9704 -0.1743
vn -0.1711 0.8371 -0.5196
vn -0.5180 0.8377 -0.1729
vn -0.4907 0.7479 -0.4471
vn 0.1743 0.9704 -0.1670
vn 0.5196 0.8371 -0.1711
vn 0.1729 0.8377 -0.5180
vn 0.4471 0.7479 -0.4907
vn 0.1670 0.9704 0.1743
vn 0.1711 0.8371 0.5196
vn 0.5180 0.8377 0.1729
vn 0.4907 0.7479 0.4471
vn -0.1670 -0.9704 0.1743
vn -0.1711 -0.8371 0.5196
vn -0.5180 -0.8377 0.1729
vn -0.4907 -0.7479 0.4471
vn 0.1743 -0.9704 0.1670
vn 0.5196 -0.8371 0.1711
vn 0.1729 -0.8377 0.5180
vn 0.4471 -0.7479 0.4907
vn 0.1670 -0.9704 -0.1743
vn 0.1711 -0.8371 -0.5196
vn 0.5180 -0.8377 -0.1729
vn 0.4907 -0.7479 -0.4471
vn -0.1743 -0.9704 -0.1670
vn -0.5196 -0.8371 -0.1711
vn -0.1729 -0.8377 -0.5180
vn -0.4471 -0.7479 -0.4907
vn -0.9704 0.1670 0.1743
vn -0.8371 0.1711 0.5196
vn -0.8377 0.5180 0.1729
vn -0.7479 0.4907 0.4471
vn -0.9704 -0.1743 0.1670
vn -0.8371 -0.5196 0.1711
vn -0.8377 -0.1729 0.5180
vn -0.7479 -0.4471 0.4907
vn -0.9704 -0.1670 -0.1743
vn -0.8371 -0.1711 -0.5196
vn -0.8377 -0.5180 -0.1729
vn -0.7479 -0.4907 -0.4471
vn -0.9704 0.1743 -0.1670
vn -0.8371 0.5196 -0.1711
vn -0.8377 0.1729 -0.5180
vn -0.7479 0.4471 -0.4907
vn -0.1743 0.1670 -0.9704
vn -0.5196 0.1711 -0.8371
vn -0.1729 0.5180 -0.8377
vn -0.4471 0.4907 -0.7479
vn -0.1670 -0.1743 -0.9704
vn -0.1711 -0.5196 -0.8371
vn -0.5180 -0.1729 -0.8377
vn -0.4907 -0.4471 -0.7479
vn 0.1743 -0.1670 -0.9704
vn 0.5196 -0.1711 -0.8371
vn 0.1729 -0.5180 -0.8377
vn 0.4471 -0.4907 -0.7479
vn 0.1670 0.1743 -0.9704
vn 0.1711 0.5196 -0.8371
vn 0.5180 0.1729 -0.8377
vn 0.4907 0.4471 -0.7479
vn 0.9704 0.1670 -0.1743
vn 0.8371 0.1711 -0.5196
vn 0.8377 0.5180 -0.1729
vn 0.7479 0.4907 -0.4471
vn 0.9704 -0.1743 -0.1670
vn 0.8371 -0.5196 -0.1711
vn 0.8377 -0.1729 -0.5180
vn 0.7479 -0.4471 -0.4907
vn 0.9704 -0.1670 0.1743
vn 0.8371 -0.1711 0.5196
vn 0.8377 -0.5180 0.1729
vn 0.7479 -0.4907 0.4471
vn 0.9704 0.1743 0.1670
vn 0.8371 0.5196 0.1711
vn 0.8377 0.1729 0.5180
vn 0.7479 0.4471 0.4907
vn -0.1743 -0.1670 0.9704
vn -0.5196 -0.1711 0.8371
vn -0.1729 -0.5180 0.8377
vn -0.4471 -0.4907 0.7479
vn -0.1670 0.1743 0.9704
vn -0.1711 0.5196 0.8371
vn -0.5180 0.1729 0.8377
vn -0.4907 0.4471 0.7479
vn 0.1743 0.1670 0.9704
vn 0.5196 0.1711 0.8371
vn 0.1729 0.5180 0.8377
vn 0.4471 0.4907 0.7479
vn 0.1670 -0.1743 0.9704
vn 0.1711 -0.5196 0.8371
vn 0.5180 -0.1729 0.8377
vn 0.4907 -0.4471 0.7479
vn -0.1670 0.9704 0.1743
vn -0.5180 0.8377 0.1729
vn -0.1711 0.8371 0.5196
vn -0.4907 0.7479 0.4471
vn -0.1743 0.9704 -0.1670
vn -0.1729 0.8377 -0.5180
vn -0.5196 0.8371 -0.1711
vn -0.4471 0.7479 -0.4907
vn 0.1670 0.9704 -0.1743
vn 0.5180 0.8377 -0.1729
vn 0.1711 0.8371 -0.5196
vn 0.4907 0.7479 -0.4471
vn 0.1743 0.9704 0.1670
vn 0.1729 0.8377 0.5180
vn 0.5196 0.8371 0.1711
vn 0.4471 0.7479 0.4907
vn -0.1743 -0.9704 0.1670
vn -0.1729 -0.8377 0.5180
vn -0.5196 -0.8371 0.1711
vn -0.4471 -0.7479 0.4907
vn 0.1670 -0.9704 0.1743
vn 0.5180 -0.8377 0.1729
vn 0.1711 -0.8371 0.5196
vn 0.4907 -0.7479 0.4471
vn 0.1743 -0.9704 -0.1670
vn 0.1729 -0.8377 -0.5180
vn 0.5196 -0.8371 -0.1711
vn 0.4471 -0.7479 -0.4907
vn -0.1670 -0.9704 -0.1743
vn -0.5180 -0.8377 -0.1729
vn -0.1711 -0.8371 -0.5196
vn -0.4907 -0.7479 -0.4471
vn -0.9704 0.1743 0.1670
vn -0.8377 0.1729 0.5180
vn -0.8371 0.5196 0.1711
vn -0.7479 0.4471 0.4907
vn -0.9704 -0.1670 0.1743
vn -0.8377 -0.5180 0.1729
vn -0.8371 -0.1711 0.5196
vn -0.7479 -0.4907 0.4471
vn -0.9704 -0.1743 -0.1670
vn -0.8377 -0.1729 -0.5180
vn -0.8371 -0.5196 -0.1711
vn -0.7479 -0.4471 -0.4907
vn -0.9704 0.1670 -0.1743
vn -0.8377 0.5180 -0.1729
vn -0.8371 0.1711 -0.5196
vn -0.7479 0.4907 -0.4471
vn -0.1670 0.1743 -0.9704
vn -0.5180 0.1729 -0.8377
vn -0.1711 0.5196 -0.8371
vn -0.4907 0.4471 -0.7479
vn -0.1743 -0.1670 -0.9704
vn -0.1729 -0.5180 -0.8377
vn -0.5196 -0.1711 -0.8371
vn -0.4471 -0.4907 -0.7479
vn 0.1670 -0.1743 -0.9704
vn 0.5180 -0.1729 -0.8377
vn 0.1711 -0.5196 -0.8371
vn 0.4907 -0.4471 -0.7479
vn 0.1743 0.1670 -0.9704
vn 0.1729 0.5180 -0.8377
vn 0.5196 0.1711 -0.8371
vn 0.4471 0.4907 -0.7479
vn 0.9704 0.1743 -0.1670
vn 0.8377 0.1729 -0.5180
vn 0.8371 0.5196 -0.1711
vn 0.7479 0.4471 -0.4907
vn 0.9704 -0.1670 -0.1743
vn 0.8377 -0.5180 -0.1729
vn 0.8371 -0.1711 -0.5196
vn 0.7479 -0.4907 -0.4471
vn 0.9704 -0.1743 0.1670
vn 0.8377 -0.1729 0.5180
vn 0.8371 -0.5196 0.1711
vn 0.7479 -0.4471 0.4907
vn 0.9704 0.1670 0.1743
vn 0.8377 0.5180 0.1729
vn 0.8371 0.1711 0.5196
vn 0.7479 0.4907 0.4471
vn -0.1670 -0.1743 0.9704
vn -0.5180 -0.1729 0.8377
vn -0.1711 -0.5196 0.8371
vn -0.4907 -0.4471 0.7479
vn -0.1743 0.1670 0.9704
vn -0.1729 0.5180 0.8377
vn -0.5196 0.1711 0.8371
vn -0.4471 0.4907 0.7479
vn 0.1670 0.1743 0.9704
vn 0.5180 0.1729 0.8377
vn 0.1711 0.5196 0.8371
vn 0.4907 0.4471 0.7479
vn 0.1743 -0.1670 0.9704
vn 0.1729 -0.5180 0.8377
vn 0.5196 -0.1711 0.8371
vn 0.4471 -0.4907 0.7479
usemtl Material
s off
f 1/1/1 6/2/1 5/3/1
f 2/4/2 55/5/2 6/2/2
f 5/3/3 58/6/3 59/7/3
f 6/2/4 91/8/4 58/6/4
f 1/1/5 7/9/5 2/4/5
f 3/10/6 64/11/6 7/9/6
f 2/4/7 57/12/7 56/13/7
f 7/9/8 92/14/8 57/12/8
f 1/1/9 8/15/9 3/10/9
f 4/16/10 70/17/10 8/15/10
f 3/10/11 66/18/11 65/19/11
f 8/15/12 93/20/12 66/18/12
f 1/1/13 9/21/13 4/16/13
f 5/3/14 60/22/14 9/21/14
f 4/16/15 72/23/15 71/24/15
f 9/21/16 94/25/16 72/23/16
f 10/26/17 15/27/17 14/28/17
f 11/29/18 82/30/18 15/27/18
f 14/28/19 79/31/19 80/32/19
f 15/27/20 95/33/20 79/31/20
f 10/26/21 16/34/21 11/29/21
f 12/35/22 90/36/22 16/34/22
f 11/29/23 84/37/23 83/38/23
f 16/34/24 98/39/24 84/37/24
f 10/26/25 17/40/25 12/35/25
f 13/41/26 87/42/26 17/40/26
f 12/35/27 88/43/27 89/44/27
f 17/40/28 97/45/28 88/43/28
f 10/26/29 18/46/29 13/41/29
f 14/28/30 81/47/30 18/46/30
f 13/41/31 85/48/31 86/49/31
f 18/46/32 96/50/32 85/48/32
f 19/51/33 24/52/33 23/53/33
f 20/54/34 61/55/34 24/52/34
f 23/53/35 55/5/35 56/13/35
f 24/52/36 91/8/36 55/5/36
f 19/51/37 25/56/37 20/54/37
f 21/57/38 79/58/38 25/56/38
f 20/54/39 63/59/39 62/60/39
f 25/56/40 95/61/40 63/59/40
f 19/51/41 26/62/41 21/57/41
f 22/63/42 69/64/42 26/62/42
f 21/57/43 81/65/43 80/66/43
f 26/62/44 96/67/44 81/65/44
f 19/51/45 27/68/45 22/63/45
f 23/53/46 57/12/46 27/68/46
f 22/63/47 67/69/47 68/70/47
f 27/68/48 92/14/48 67/69/48
f 28/71/49 33/72/49 32/73/49
f 29/74/50 67/75/50 33/72/50
f 32/73/51 64/11/51 65/19/51
f 33/72/52 92/14/52 64/11/52
f 28/71/53 34/76/53 29/74/53
f 30/77/54 85/78/54 34/76/54
f 29/74/55 69/79/55 68/80/55
f 34/76/56 96/81/56 69/79/56
f 28/71/57 35/82/57 30/77/57
f 31/83/58 75/84/58 35/82/58
f 30/77/59 87/85/59 86/86/59
f 35/82/60 97/87/60 87/85/60
f 28/71/61 36/88/61 31/83/61
f 32/73/62 66/18/62 36/88/62
f 31/83/63 73/89/63 74/90/63
f 36/88/64 93/20/64 73/89/64
f 37/91/65 42/92/65 41/93/65
f 38/94/66 73/95/66 42/92/66
f 41/93/67 70/17/67 71/24/67
f 42/92/68 93/20/68 70/17/68
f 37/91/69 43/96/69 38/94/69
f 39/97/70 88/98/70 43/96/70
f 38/94/71 75/99/71 74/100/71
f 43/96/72 97/101/72 75/99/72
f 37/91/73 44/102/73 39/97/73
f 40/103/74 78/104/74 44/102/74
f 39/97/75 90/105/75 89/106/75
f 44/102/76 98/107/76 90/105/76
f 37/91/77 45/108/77 40/103/77
f 41/93/78 72/23/78 45/108/78
f 40/103/79 76/109/79 77/110/79
f 45/108/80 94/25/80 76/109/80
f 46/111/81 51/112/81 50/113/81
f 47/114/82 63/115/82 51/112/82
f 50/113/83 82/30/83 83/38/83
f 51/112/84 95/33/84 82/30/84
f 46/111/85 52/116/85 47/114/85
f 48/117/86 58/6/86 52/116/86
f 47/114/87 61/118/87 62/119/87
f 52/116/88 91/8/88 61/118/88
f 46/111/89 53/120/89 48/117/89
f 49/121/90 76/122/90 53/120/90
f 48/117/91 60/22/91 59/7/91
f 53/120/92 94/25/92 60/22/92
f 46/111/93 54/123/93 49/121/93
f 50/113/94 84/37/94 54/123/94
f 49/121/95 78/124/95 77/125/95
f 54/123/96 98/39/96 78/124/96
f 1/1/97 2/4/97 6/2/97
f 2/4/98 56/13/98 55/5/98
f 5/3/99 6/2/99 58/6/99
f 6/2/100 55/5/100 91/8/100
f 1/1/101 3/10/101 7/9/101
f 3/10/102 65/19/102 64/11/102
f 2/4/103 7/9/103 57/12/103
f 7/9/104 64/11/104 92/14/104
f 1/1/105 4/16/105 8/15/105
f 4/16/106 71/24/106 70/17/106
f 3/10/107 8/15/107 66/18/107
f 8/15/108 70/17/108 93/20/108
f 1/1/109 5/3/109 9/21/109
f 5/3/110 59/7/110 60/22/110
f 4/16/111 9/21/111 72/23/111
f 9/21/112 60/22/112 94/25/112
f 10/26/113 11/29/113 15/27/113
f 11/29/114 83/38/114 82/30/114
f 14/28/115 15/27/115 79/31/115
f 15/27/116 82/30/116 95/33/116
f 10/26/117 12/35/117 16/34/117
f 12/35/118 89/44/118 90/36/118
f 11/29/119 16/34/119 84/37/119
f 16/34/120 90/36/120 98/39/120
f 10/26/121 13/41/121 17/40/121
f 13/41/122 86/49/122 87/42/122
f 12/35/123 17/40/123 88/43/123
f 17/40/124 87/42/124 97/45/124
f 10/26/125 14/28/125 18/46/125
f 14/28/126 80/32/126 81/47/126
f 13/41/127 18/46/127 85/48/127
f 18/46/128 81/47/128 96/50/128
f 19/51/129 20/54/129 24/52/129
f 20/54/130 62/60/130 61/55/130
f 23/53/131 24/52/131 55/5/131
f 24/52/132 61/55/132 91/8/132
f 19/51/133 21/57/133 25/56/133
f 21/57/134 80/66/134 79/58/134
f 20/54/135 25/56/135 63/59/135
f 25/56/136 79/58/136 95/61/136
f 19/51/137 22/63/137 26/62/137
f 22/63/138 68/70/138 69/64/138
f 21/57/139 26/62/139 81/65/139
f 26/62/140 69/64/140 96/67/140
f 19/51/141 23/53/141 27/68/141
f 23/53/142 56/13/142 57/12/142
f 22/63/143 27/68/143 67/69/143
f 27/68/144 57/12/144 92/14/144
f 28/71/145 29/74/145 33/72/145
f 29/74/146 68/80/146 67/75/146
f 32/73/147 33/72/147 64/11/147
f 33/72/148 67/75/148 92/14/148
f 28/71/149 30/77/149 34/76/149
f 30/77/150 86/86/150 85/78/150
f 29/74/151 34/76/151 69/79/151
f 34/76/152 85/78/152 96/81/152
f 28/71/153 31/83/153 35/82/153
f 31/83/154 74/90/154 75/84/154
f 30/77/155 35/82/155 87/85/155
f 35/82/156 75/84/156 97/87/156
f 28/71/157 32/73/157 36/88/157
f 32/73/158 65/19/158 66/18/158
f 31/83/159 36/88/159 73/89/159
f 36/88/160 66/18/160 93/20/160
f 37/91/161 38/94/161 42/92/161
f 38/94/162 74/100/162 73/95/162
f 41/93/163 42/92/163 70/17/163
f 42/92/164 73/95/164 93/20/164
f 37/91/165 39/97/165 43/96/165
f 39/97/166 89/106/166 88/98/166
f 38/94/167 43/96/167 75/99/167
f 43/96/168 88/98/168 97/101/168
f 37/91/169 40/103/169 44/102/169
f 40/103/170 77/110/170 78/104/170
f 39/97/171 44/102/171 90/105/171
f 44/102/172 78/104/172 98/107/172
f 37/91/173 41/93/173 45/108/173
f 41/93/174 71/24/174 72/23/174
f 40/103/175 45/108/175 76/109/175
f 45/108/176 72/23/176 94/25/176
f 46/111/177 47/114/177 51/112/177
f 47/114/178 62/119/178 63/115/178
f 50/113/179 51/112/179 82/30/179
f 51/112/180 63/115/180 95/33/180
f 46/111/181 48/117/181 52/116/181
f 48/117/182 59/7/182 58/6/182
f 47/114/183 52/116/183 61/118/183
f 52/116/184 58/6/184 91/8/184
f 46/111/185 49/121/185 53/120/185
f 49/121/186 77/125/186 76/122/186
f 48/117/187 53/120/187 60/22/187
f 53/120/188 76/122/188 94/25/188
f 46/111/189 50/113/189 54/123/189
f 50/113/190 83/38/190 84/37/190
f 49/121/191 54/123/191 78/124/191
f 54/123/192 84/37/192 98/39/192
